<mxfile host="app.diagrams.net" agent="Mozilla/5.0 (Windows NT 10.0; Win64; x64) AppleWebKit/537.36 (KHTML, like Gecko) Chrome/134.0.0.0 Safari/537.36" version="26.2.15">
  <diagram name="Trang-1" id="Xm8CXyWp7TMnGDRKS8NE">
    <mxGraphModel dx="1777" dy="855" grid="1" gridSize="10" guides="1" tooltips="1" connect="1" arrows="1" fold="1" page="1" pageScale="1" pageWidth="1169" pageHeight="1654" math="0" shadow="0">
      <root>
        <mxCell id="0" />
        <mxCell id="1" parent="0" />
        <mxCell id="_Z9sWXTGS8yLuttllYk--3" value="" style="edgeStyle=orthogonalEdgeStyle;rounded=0;orthogonalLoop=1;jettySize=auto;html=1;" edge="1" parent="1" source="_Z9sWXTGS8yLuttllYk--1" target="_Z9sWXTGS8yLuttllYk--2">
          <mxGeometry relative="1" as="geometry" />
        </mxCell>
        <mxCell id="_Z9sWXTGS8yLuttllYk--1" value="Bắt đầu" style="ellipse;whiteSpace=wrap;html=1;" vertex="1" parent="1">
          <mxGeometry x="360" y="50" width="120" height="80" as="geometry" />
        </mxCell>
        <mxCell id="_Z9sWXTGS8yLuttllYk--5" value="" style="edgeStyle=orthogonalEdgeStyle;rounded=0;orthogonalLoop=1;jettySize=auto;html=1;" edge="1" parent="1" source="_Z9sWXTGS8yLuttllYk--2" target="_Z9sWXTGS8yLuttllYk--4">
          <mxGeometry relative="1" as="geometry" />
        </mxCell>
        <mxCell id="_Z9sWXTGS8yLuttllYk--2" value="Khai báo các biến, thư viện sử dụng" style="rounded=0;whiteSpace=wrap;html=1;" vertex="1" parent="1">
          <mxGeometry x="360" y="160" width="120" height="60" as="geometry" />
        </mxCell>
        <mxCell id="_Z9sWXTGS8yLuttllYk--23" value="" style="edgeStyle=orthogonalEdgeStyle;rounded=0;orthogonalLoop=1;jettySize=auto;html=1;" edge="1" parent="1" source="_Z9sWXTGS8yLuttllYk--4" target="_Z9sWXTGS8yLuttllYk--22">
          <mxGeometry relative="1" as="geometry" />
        </mxCell>
        <mxCell id="_Z9sWXTGS8yLuttllYk--4" value="Đọc thời gian mỗi giây" style="shape=process;whiteSpace=wrap;html=1;backgroundOutline=1;" vertex="1" parent="1">
          <mxGeometry x="360" y="250" width="120" height="60" as="geometry" />
        </mxCell>
        <mxCell id="_Z9sWXTGS8yLuttllYk--9" value="" style="edgeStyle=orthogonalEdgeStyle;rounded=0;orthogonalLoop=1;jettySize=auto;html=1;" edge="1" parent="1" source="_Z9sWXTGS8yLuttllYk--6" target="_Z9sWXTGS8yLuttllYk--8">
          <mxGeometry relative="1" as="geometry" />
        </mxCell>
        <mxCell id="_Z9sWXTGS8yLuttllYk--6" value="Đọc khoảng cách từ cảm biến" style="shape=process;whiteSpace=wrap;html=1;backgroundOutline=1;" vertex="1" parent="1">
          <mxGeometry x="360" y="440" width="120" height="60" as="geometry" />
        </mxCell>
        <mxCell id="_Z9sWXTGS8yLuttllYk--15" value="" style="edgeStyle=orthogonalEdgeStyle;rounded=0;orthogonalLoop=1;jettySize=auto;html=1;" edge="1" parent="1" source="_Z9sWXTGS8yLuttllYk--8" target="_Z9sWXTGS8yLuttllYk--14">
          <mxGeometry relative="1" as="geometry" />
        </mxCell>
        <mxCell id="_Z9sWXTGS8yLuttllYk--31" value="YES" style="edgeLabel;html=1;align=center;verticalAlign=middle;resizable=0;points=[];" vertex="1" connectable="0" parent="_Z9sWXTGS8yLuttllYk--15">
          <mxGeometry x="0.2" y="-1" relative="1" as="geometry">
            <mxPoint as="offset" />
          </mxGeometry>
        </mxCell>
        <mxCell id="_Z9sWXTGS8yLuttllYk--8" value="Khoảng cách&amp;lt;30cm" style="rhombus;whiteSpace=wrap;html=1;" vertex="1" parent="1">
          <mxGeometry x="360" y="540" width="120" height="80" as="geometry" />
        </mxCell>
        <mxCell id="_Z9sWXTGS8yLuttllYk--19" value="" style="edgeStyle=orthogonalEdgeStyle;rounded=0;orthogonalLoop=1;jettySize=auto;html=1;" edge="1" parent="1" source="_Z9sWXTGS8yLuttllYk--14" target="_Z9sWXTGS8yLuttllYk--18">
          <mxGeometry relative="1" as="geometry" />
        </mxCell>
        <mxCell id="_Z9sWXTGS8yLuttllYk--14" value="Đọc chuyển động" style="shape=process;whiteSpace=wrap;html=1;backgroundOutline=1;" vertex="1" parent="1">
          <mxGeometry x="360" y="650" width="120" height="60" as="geometry" />
        </mxCell>
        <mxCell id="_Z9sWXTGS8yLuttllYk--21" value="YES" style="edgeStyle=orthogonalEdgeStyle;rounded=0;orthogonalLoop=1;jettySize=auto;html=1;" edge="1" parent="1" source="_Z9sWXTGS8yLuttllYk--18" target="_Z9sWXTGS8yLuttllYk--20">
          <mxGeometry relative="1" as="geometry" />
        </mxCell>
        <mxCell id="_Z9sWXTGS8yLuttllYk--18" value="Chuyển động quá&lt;br&gt;6 lần" style="rhombus;whiteSpace=wrap;html=1;" vertex="1" parent="1">
          <mxGeometry x="360" y="740" width="120" height="80" as="geometry" />
        </mxCell>
        <mxCell id="_Z9sWXTGS8yLuttllYk--20" value="Thực hiện cảnh báo" style="whiteSpace=wrap;html=1;" vertex="1" parent="1">
          <mxGeometry x="360" y="860" width="120" height="60" as="geometry" />
        </mxCell>
        <mxCell id="_Z9sWXTGS8yLuttllYk--24" value="" style="edgeStyle=orthogonalEdgeStyle;rounded=0;orthogonalLoop=1;jettySize=auto;html=1;" edge="1" parent="1" source="_Z9sWXTGS8yLuttllYk--22" target="_Z9sWXTGS8yLuttllYk--6">
          <mxGeometry relative="1" as="geometry" />
        </mxCell>
        <mxCell id="_Z9sWXTGS8yLuttllYk--22" value="Thực hiện hiển thị trên LED 7 đoạn" style="shape=process;whiteSpace=wrap;html=1;backgroundOutline=1;" vertex="1" parent="1">
          <mxGeometry x="360" y="340" width="120" height="60" as="geometry" />
        </mxCell>
        <mxCell id="_Z9sWXTGS8yLuttllYk--25" value="" style="endArrow=classic;html=1;rounded=0;exitX=1;exitY=0.5;exitDx=0;exitDy=0;" edge="1" parent="1" source="_Z9sWXTGS8yLuttllYk--20">
          <mxGeometry width="50" height="50" relative="1" as="geometry">
            <mxPoint x="520" y="780" as="sourcePoint" />
            <mxPoint x="420" y="141" as="targetPoint" />
            <Array as="points">
              <mxPoint x="530" y="890" />
              <mxPoint x="570" y="890" />
              <mxPoint x="570" y="870" />
              <mxPoint x="570" y="140" />
            </Array>
          </mxGeometry>
        </mxCell>
        <mxCell id="_Z9sWXTGS8yLuttllYk--27" value="" style="endArrow=classic;html=1;rounded=0;exitX=0;exitY=0.5;exitDx=0;exitDy=0;" edge="1" parent="1" source="_Z9sWXTGS8yLuttllYk--18">
          <mxGeometry width="50" height="50" relative="1" as="geometry">
            <mxPoint x="350" y="770" as="sourcePoint" />
            <mxPoint x="420" y="420" as="targetPoint" />
            <Array as="points">
              <mxPoint x="280" y="780" />
              <mxPoint x="280" y="690" />
              <mxPoint x="280" y="420" />
            </Array>
          </mxGeometry>
        </mxCell>
        <mxCell id="_Z9sWXTGS8yLuttllYk--30" value="NO" style="edgeLabel;html=1;align=center;verticalAlign=middle;resizable=0;points=[];" vertex="1" connectable="0" parent="_Z9sWXTGS8yLuttllYk--27">
          <mxGeometry x="-0.0931" y="2" relative="1" as="geometry">
            <mxPoint as="offset" />
          </mxGeometry>
        </mxCell>
        <mxCell id="_Z9sWXTGS8yLuttllYk--28" value="" style="endArrow=classic;html=1;rounded=0;exitX=1;exitY=0.5;exitDx=0;exitDy=0;" edge="1" parent="1" source="_Z9sWXTGS8yLuttllYk--8">
          <mxGeometry width="50" height="50" relative="1" as="geometry">
            <mxPoint x="520" y="600" as="sourcePoint" />
            <mxPoint x="420" y="420" as="targetPoint" />
            <Array as="points">
              <mxPoint x="520" y="580" />
              <mxPoint x="520" y="420" />
            </Array>
          </mxGeometry>
        </mxCell>
        <mxCell id="_Z9sWXTGS8yLuttllYk--29" value="NO" style="edgeLabel;html=1;align=center;verticalAlign=middle;resizable=0;points=[];" vertex="1" connectable="0" parent="_Z9sWXTGS8yLuttllYk--28">
          <mxGeometry x="-0.2667" y="-3" relative="1" as="geometry">
            <mxPoint as="offset" />
          </mxGeometry>
        </mxCell>
      </root>
    </mxGraphModel>
  </diagram>
</mxfile>
